<svg xmlns="http://www.w3.org/2000/svg" xmlns:xlink="http://www.w3.org/1999/xlink" 
  width="561.6px" height="195px" viewBox="-10 -10 432 150" version="1.1">
<![CDATA[
clock	  _~_~_~_~_~_~_~_~_~_~_~_~_~_~_~_
prescaler =2X=3X=0X=1X=2X=3X=0======X=1X=2X=3X=0X=1X=2
next      _~~______~~____________~~______
status    =data==X=stop======X=idle====X=start======X=data====
sendable  _________~~~~~~~~______________
sendreq   _______________~~X=?============
data      =?==============X="d[x]"X=?============
]]>
<g>
<text x="35" y="8.5" text-anchor="end" font-size="10" fill="black" font-family="Helvetica">clock</text>
<path stroke-linecap="round" stroke-width="0.6" stroke="black" fill="none" d="M42,10H52L54,0H64L66,10H76L78,0H88L90,10H100L102,0H112L114,10H124L126,0H136L138,10H148L150,0H160L162,10H172L174,0H184L186,10H196L198,0H208L210,10H220L222,0H232L234,10H244L246,0H256L258,10H268L270,0H280L282,10H292L294,0H304L306,10H316L318,0H328L330,10H340L342,0H352L354,10H364L366,0H376L378,10H388L390,0H400L402,10H412" />

<text x="35" y="28.5" text-anchor="end" font-size="10" fill="black" font-family="Helvetica">prescaler</text>
<text x="47" y="28.5" text-anchor="middle" font-size="10" fill="black" font-family="Helvetica">2</text>
<text x="65" y="28.5" text-anchor="middle" font-size="10" fill="black" font-family="Helvetica">3</text>
<text x="89" y="28.5" text-anchor="middle" font-size="10" fill="black" font-family="Helvetica">0</text>
<text x="113" y="28.5" text-anchor="middle" font-size="10" fill="black" font-family="Helvetica">1</text>
<text x="137" y="28.5" text-anchor="middle" font-size="10" fill="black" font-family="Helvetica">2</text>
<text x="161" y="28.5" text-anchor="middle" font-size="10" fill="black" font-family="Helvetica">3</text>
<text x="221" y="28.5" text-anchor="middle" font-size="10" fill="black" font-family="Helvetica">0</text>
<text x="281" y="28.5" text-anchor="middle" font-size="10" fill="black" font-family="Helvetica">1</text>
<text x="305" y="28.5" text-anchor="middle" font-size="10" fill="black" font-family="Helvetica">2</text>
<text x="329" y="28.5" text-anchor="middle" font-size="10" fill="black" font-family="Helvetica">3</text>
<text x="353" y="28.5" text-anchor="middle" font-size="10" fill="black" font-family="Helvetica">0</text>
<text x="377" y="28.5" text-anchor="middle" font-size="10" fill="black" font-family="Helvetica">1</text>
<text x="401" y="28.5" text-anchor="middle" font-size="10" fill="black" font-family="Helvetica">2</text>
<path stroke-linecap="round" stroke-width="0.6" stroke="black" fill="none" d="M42,30H52L54,20H76L78,30H100L102,20H124L126,30H148L150,20H172L174,30H268L270,20H292L294,30H316L318,20H340L342,30H364L366,20H388L390,30H412M42,20H52L54,30H76L78,20H100L102,30H124L126,20H148L150,30H172L174,20H268L270,30H292L294,20H316L318,30H340L342,20H364L366,30H388L390,20H412" />

<text x="35" y="48.5" text-anchor="end" font-size="10" fill="black" font-family="Helvetica">next</text>
<path stroke-linecap="round" stroke-width="0.6" stroke="black" fill="none" d="M42,50H52L54,40H76L78,50H148L150,40H172L174,50H316L318,40H340L342,50H412" />

<text x="35" y="68.5" text-anchor="end" font-size="10" fill="black" font-family="Helvetica">status</text>
<text x="59" y="68.5" text-anchor="middle" font-size="10" fill="black" font-family="Helvetica">data</text>
<text x="125" y="68.5" text-anchor="middle" font-size="10" fill="black" font-family="Helvetica">stop</text>
<text x="209" y="68.5" text-anchor="middle" font-size="10" fill="black" font-family="Helvetica">idle</text>
<text x="293" y="68.5" text-anchor="middle" font-size="10" fill="black" font-family="Helvetica">start</text>
<text x="377" y="68.5" text-anchor="middle" font-size="10" fill="black" font-family="Helvetica">data</text>
<path stroke-linecap="round" stroke-width="0.6" stroke="black" fill="none" d="M42,70H76L78,60H172L174,70H244L246,60H340L342,70H412M42,60H76L78,70H172L174,60H244L246,70H340L342,60H412" />

<text x="35" y="88.5" text-anchor="end" font-size="10" fill="black" font-family="Helvetica">sendable</text>
<path stroke-linecap="round" stroke-width="0.6" stroke="black" fill="none" d="M42,90H148L150,80H244L246,90H412" />

<text x="35" y="108.5" text-anchor="end" font-size="10" fill="black" font-family="Helvetica">sendreq</text>

<path stroke="none" d="M246,100H412L412,110H246L244,100Z" fill="#ccc"/><text x="329" y="108.5" text-anchor="middle" font-size="10" fill="black" font-family="Helvetica">?</text>
<path stroke-linecap="round" stroke-width="0.6" stroke="black" fill="none" d="M42,110H220L222,100H244L246,110H412M244,100H412" />

<text x="35" y="128.5" text-anchor="end" font-size="10" fill="black" font-family="Helvetica">data</text>

<path stroke="none" d="M42,120H220L221,125L220,130H42Z" fill="#ccc"/><text x="131" y="128.5" text-anchor="middle" font-size="10" fill="black" font-family="Helvetica">?</text>
<text x="233" y="128.5" text-anchor="middle" font-size="10" fill="black" font-family="Helvetica">d[x]</text>

<path stroke="none" d="M246,120H412L412,130H246L245,125Z" fill="#ccc"/><text x="329" y="128.5" text-anchor="middle" font-size="10" fill="black" font-family="Helvetica">?</text>
<path stroke-linecap="round" stroke-width="0.6" stroke="black" fill="none" d="M42,130H220L222,120H244L246,130H412M42,120H220L222,130H244L246,120H412" />

</g>
</svg>