<svg xmlns="http://www.w3.org/2000/svg" xmlns:xlink="http://www.w3.org/1999/xlink" 
  width="530.4px" height="195px" viewBox="-10 -10 408 150" version="1.1">
<![CDATA[
clock	  _~_~_~_~_~_~_~_~_~_~_~_~_~_~_
prescaler =0X=1X=2X=3X=0X=1X=2X=3X=0X=1X=2X=3X=0X=1X=2
next      _____~~______~~______~~______
status    =data======X=stop======X=start======X=data====
sendable  _____________~~______________
sendreq   ~~~~~~~~~~~~~~~X=?============
data      ="d[x]"==============X=?============
]]>
<g>
<text x="35" y="8.5" text-anchor="end" font-size="10" fill="black" font-family="Helvetica">clock</text>
<path stroke-linecap="round" stroke-width="0.6" stroke="black" fill="none" d="M42,10H52L54,0H64L66,10H76L78,0H88L90,10H100L102,0H112L114,10H124L126,0H136L138,10H148L150,0H160L162,10H172L174,0H184L186,10H196L198,0H208L210,10H220L222,0H232L234,10H244L246,0H256L258,10H268L270,0H280L282,10H292L294,0H304L306,10H316L318,0H328L330,10H340L342,0H352L354,10H364L366,0H376L378,10H388" />

<text x="35" y="28.5" text-anchor="end" font-size="10" fill="black" font-family="Helvetica">prescaler</text>
<text x="47" y="28.5" text-anchor="middle" font-size="10" fill="black" font-family="Helvetica">0</text>
<text x="65" y="28.5" text-anchor="middle" font-size="10" fill="black" font-family="Helvetica">1</text>
<text x="89" y="28.5" text-anchor="middle" font-size="10" fill="black" font-family="Helvetica">2</text>
<text x="113" y="28.5" text-anchor="middle" font-size="10" fill="black" font-family="Helvetica">3</text>
<text x="137" y="28.5" text-anchor="middle" font-size="10" fill="black" font-family="Helvetica">0</text>
<text x="161" y="28.5" text-anchor="middle" font-size="10" fill="black" font-family="Helvetica">1</text>
<text x="185" y="28.5" text-anchor="middle" font-size="10" fill="black" font-family="Helvetica">2</text>
<text x="209" y="28.5" text-anchor="middle" font-size="10" fill="black" font-family="Helvetica">3</text>
<text x="233" y="28.5" text-anchor="middle" font-size="10" fill="black" font-family="Helvetica">0</text>
<text x="257" y="28.5" text-anchor="middle" font-size="10" fill="black" font-family="Helvetica">1</text>
<text x="281" y="28.5" text-anchor="middle" font-size="10" fill="black" font-family="Helvetica">2</text>
<text x="305" y="28.5" text-anchor="middle" font-size="10" fill="black" font-family="Helvetica">3</text>
<text x="329" y="28.5" text-anchor="middle" font-size="10" fill="black" font-family="Helvetica">0</text>
<text x="353" y="28.5" text-anchor="middle" font-size="10" fill="black" font-family="Helvetica">1</text>
<text x="377" y="28.5" text-anchor="middle" font-size="10" fill="black" font-family="Helvetica">2</text>
<path stroke-linecap="round" stroke-width="0.6" stroke="black" fill="none" d="M42,30H52L54,20H76L78,30H100L102,20H124L126,30H148L150,20H172L174,30H196L198,20H220L222,30H244L246,20H268L270,30H292L294,20H316L318,30H340L342,20H364L366,30H388M42,20H52L54,30H76L78,20H100L102,30H124L126,20H148L150,30H172L174,20H196L198,30H220L222,20H244L246,30H268L270,20H292L294,30H316L318,20H340L342,30H364L366,20H388" />

<text x="35" y="48.5" text-anchor="end" font-size="10" fill="black" font-family="Helvetica">next</text>
<path stroke-linecap="round" stroke-width="0.6" stroke="black" fill="none" d="M42,50H100L102,40H124L126,50H196L198,40H220L222,50H292L294,40H316L318,50H388" />

<text x="35" y="68.5" text-anchor="end" font-size="10" fill="black" font-family="Helvetica">status</text>
<text x="83" y="68.5" text-anchor="middle" font-size="10" fill="black" font-family="Helvetica">data</text>
<text x="173" y="68.5" text-anchor="middle" font-size="10" fill="black" font-family="Helvetica">stop</text>
<text x="269" y="68.5" text-anchor="middle" font-size="10" fill="black" font-family="Helvetica">start</text>
<text x="353" y="68.5" text-anchor="middle" font-size="10" fill="black" font-family="Helvetica">data</text>
<path stroke-linecap="round" stroke-width="0.6" stroke="black" fill="none" d="M42,70H124L126,60H220L222,70H316L318,60H388M42,60H124L126,70H220L222,60H316L318,70H388" />

<text x="35" y="88.5" text-anchor="end" font-size="10" fill="black" font-family="Helvetica">sendable</text>
<path stroke-linecap="round" stroke-width="0.6" stroke="black" fill="none" d="M42,90H196L198,80H220L222,90H388" />

<text x="35" y="108.5" text-anchor="end" font-size="10" fill="black" font-family="Helvetica">sendreq</text>

<path stroke="none" d="M222,100H388L388,110H222L220,100Z" fill="#ccc"/><text x="305" y="108.5" text-anchor="middle" font-size="10" fill="black" font-family="Helvetica">?</text>
<path stroke-linecap="round" stroke-width="0.6" stroke="black" fill="none" d="M42,100H220L222,110H388M220,100H388" />

<text x="35" y="128.5" text-anchor="end" font-size="10" fill="black" font-family="Helvetica">data</text>
<text x="131" y="128.5" text-anchor="middle" font-size="10" fill="black" font-family="Helvetica">d[x]</text>

<path stroke="none" d="M222,120H388L388,130H222L221,125Z" fill="#ccc"/><text x="305" y="128.5" text-anchor="middle" font-size="10" fill="black" font-family="Helvetica">?</text>
<path stroke-linecap="round" stroke-width="0.6" stroke="black" fill="none" d="M42,130H220L222,120H388M42,120H220L222,130H388" />

</g>
</svg>